# https://github.com/mikedh/trimesh
mtllib material.mtl
usemtl material_0
v 0.45101964 10.61567783 -0.89839065
v 1.36204076 9.73871422 -0.89839065
v 1.36204076 9.73871422 -0.75028956
v 0.45101964 10.61567783 -0.75028956
v 0.45101964 10.61567783 -0.75028956
v 1.36204076 9.73871422 -0.75028956
v 1.36204076 12.95973587 -0.75028956
v 0.45101953 11.94654465 -0.75028956
v 0.45101953 11.94654465 -0.75028956
v 1.36204076 12.95973587 -0.75028956
v 1.36204076 12.95973587 -0.89839065
v 0.45101959 11.94654465 -0.89839065
v 0.45101959 11.94654465 -0.89839065
v 1.36204076 12.95973587 -0.89839065
v 1.36204076 9.73871422 -0.89839065
v 0.45101964 10.61567783 -0.89839065
v 2.11155605 9.73055458 -0.91812038
v 2.07705855 12.95139217 -0.91812038
v 2.07705855 12.95139217 -0.77001929
v 2.11155605 9.73055458 -0.77001929
v 0.45101959 11.94654465 -0.89839065
v 0.45101964 10.61567783 -0.89839065
v 0.45101964 10.61567783 -0.75028956
v 0.45101953 11.94654465 -0.75028956
v 2.07705855 12.95139217 -0.91812038
v 2.11155605 9.73055458 -0.91812038
v 1.36204076 12.95973587 -0.89839065
v 1.36204076 12.95973587 -0.75028956
v 2.07705855 12.95139217 -0.77001929
v 2.07705855 12.95139217 -0.91812038
v 2.11155605 9.73055458 -0.77001929
v 2.07705855 12.95139217 -0.77001929
v 1.36204076 9.73871422 -0.75028956
v 1.36204076 9.73871422 -0.89839065
v 2.11155605 9.73055458 -0.91812038
v 2.11155605 9.73055458 -0.77001929
v 3.62743568 12.09098339 -0.91812038
v 2.70707464 12.95814037 -0.91812038
v 2.70707464 12.95814037 -0.77001917
v 3.62743568 12.09098339 -0.77001917
v 3.62743568 12.09098339 -0.77001917
v 2.70707464 12.95814037 -0.77001917
v 2.74157238 9.73730373 -0.77001917
v 3.64169097 10.76019382 -0.77001917
v 3.64169097 10.76019382 -0.77001917
v 2.74157238 9.73730373 -0.77001917
v 2.74157238 9.73730373 -0.91812038
v 3.64169073 10.76019382 -0.91812038
v 3.64169073 10.76019382 -0.91812038
v 2.74157238 9.73730373 -0.91812038
v 2.70707464 12.95814037 -0.91812038
v 3.62743568 12.09098339 -0.91812038
v 2.07705855 12.95139217 -0.91812038
v 2.11155605 9.73055458 -0.91812038
v 2.11155605 9.73055458 -0.77001929
v 2.07705855 12.95139217 -0.77001929
v 3.64169073 10.76019382 -0.91812038
v 3.62743568 12.09098339 -0.91812038
v 3.62743568 12.09098339 -0.77001917
v 3.64169097 10.76019382 -0.77001917
v 2.11155605 9.73055458 -0.91812038
v 2.07705855 12.95139217 -0.91812038
v 2.74157238 9.73730373 -0.91812038
v 2.74157238 9.73730373 -0.77001917
v 2.11155605 9.73055458 -0.77001929
v 2.11155605 9.73055458 -0.91812038
v 2.07705855 12.95139217 -0.77001929
v 2.11155605 9.73055458 -0.77001929
v 2.70707464 12.95814037 -0.77001917
v 2.70707464 12.95814037 -0.91812038
v 2.07705855 12.95139217 -0.91812038
v 2.07705855 12.95139217 -0.77001929
v 1.43236446 0.02638675 -1.00019669
v 2.53401327 0.02638675 -1.00019669
v 2.53401327 0.02638675 0.05614500
v 1.43236446 0.02638675 0.05614500
v 1.43236446 0.02638675 0.05614500
v 2.53401327 0.02638675 0.05614500
v 2.53401327 2.11260842 0.05614500
v 1.43236446 2.11260842 0.05614500
v 1.70571589 16.99061797 -0.17758754
v 2.26066160 16.99061797 -0.17758754
v 2.26066160 16.99061797 -0.76646411
v 1.70571589 16.99061797 -0.76646411
v 1.43236446 2.11260842 -1.00019669
v 2.53401327 2.11260842 -1.00019669
v 2.53401327 0.02638675 -1.00019669
v 1.43236446 0.02638675 -1.00019669
v 2.53401327 0.02638675 -1.00019669
v 2.53401327 2.11260842 -1.00019669
v 2.53401327 2.11260842 0.05614500
v 2.53401327 0.02638675 0.05614500
v 1.43236446 2.11260842 -1.00019669
v 1.43236446 0.02638675 -1.00019669
v 1.43236446 0.02638675 0.05614500
v 1.43236446 2.11260842 0.05614500
v 1.43236446 2.11260842 0.05614500
v 2.53401327 2.11260842 0.05614500
v 2.26066160 2.11260842 -0.17758754
v 1.70571589 2.11260842 -0.17758754
v 2.53401327 2.11260842 -1.00019669
v 2.26066160 2.11260842 -0.76646411
v 1.43236446 2.11260842 -1.00019669
v 1.70571589 2.11260842 -0.76646411
v 1.70571589 2.11260842 -0.17758754
v 2.26066160 2.11260842 -0.17758754
v 2.26066160 16.99061797 -0.17758754
v 1.70571589 16.99061797 -0.17758754
v 5.68024874 15.23497402 -0.44475330
v 5.68024874 15.23497402 -0.55441414
v 5.68024874 16.29489745 -0.55441414
v 5.68024874 16.29489745 -0.44475330
v 2.06343985 15.24165297 -4.12162723
v 1.90293741 15.24165297 -4.12162723
v 1.90293741 16.29052121 -4.12162723
v 2.06343985 16.29052121 -4.12162723
v 1.70571589 2.11260842 -0.76646411
v 1.70571589 2.11260842 -0.17758754
v 1.70571589 16.99061797 -0.17758754
v 1.70571589 16.99061797 -0.76646411
v 2.26066160 2.11260842 -0.76646411
v 1.70571589 2.11260842 -0.76646411
v 1.81219649 15.06177551 -0.76646411
v 2.15418100 15.06177551 -0.76646411
v 1.70571589 16.99061797 -0.76646411
v 1.81219649 16.47039967 -0.76646411
v 2.26066160 16.99061797 -0.76646411
v 2.15418100 16.47039967 -0.76646411
v 2.15418100 15.06177551 -0.76646411
v 1.81219649 15.06177551 -0.76646411
v 1.81219649 15.06177551 -0.86813571
v 2.15418100 15.06177551 -0.86813571
v 1.81219649 15.06177551 -0.76646411
v 1.81219649 16.47039967 -0.76646411
v 1.81219649 16.47039967 -0.86813571
v 1.81219649 15.06177551 -0.86813571
v 1.81219649 16.47039967 -0.76646411
v 2.15418100 16.47039967 -0.76646411
v 2.15418100 16.47039967 -0.86813571
v 1.81219649 16.47039967 -0.86813571
v 2.15418100 16.47039967 -0.76646411
v 2.15418100 15.06177551 -0.76646411
v 2.15418100 15.06177551 -0.86813571
v 2.15418100 16.47039967 -0.86813571
v 2.15418100 15.06177551 -0.86813571
v 1.81219649 15.06177551 -0.86813571
v 1.90293741 15.24165297 -0.86813571
v 2.06343985 15.24165297 -0.86813571
v 1.81219649 16.47039967 -0.86813571
v 1.90293741 16.29052121 -0.86813571
v 2.15418100 16.47039967 -0.86813571
v 2.06343985 16.29052121 -0.86813571
v 2.06343985 15.24165297 -0.86813571
v 1.90293741 15.24165297 -0.86813571
v 1.90293741 15.24165297 -4.12162723
v 2.06343985 15.24165297 -4.12162723
v 1.90293741 15.24165297 -0.86813571
v 1.90293741 16.29052121 -0.86813571
v 1.90293741 16.29052121 -4.12162723
v 1.90293741 15.24165297 -4.12162723
v 1.90293741 16.29052121 -0.86813571
v 2.06343985 16.29052121 -0.86813571
v 2.06343985 16.29052121 -4.12162723
v 1.90293741 16.29052121 -4.12162723
v 2.06343985 16.29052121 -0.86813571
v 2.06343985 15.24165297 -0.86813571
v 2.06343985 15.24165297 -4.12162723
v 2.06343985 16.29052121 -4.12162723
v 2.26066160 2.11260842 -0.17758754
v 2.26066160 2.11260842 -0.76646411
v 2.26066160 15.06258559 -0.66199242
v 2.26066160 15.06258559 -0.32064022
v 2.26066160 16.99061797 -0.76646411
v 2.26066160 16.46728289 -0.66199242
v 2.26066160 16.99061797 -0.17758754
v 2.26066160 16.46728289 -0.32064022
v 2.26066160 15.06258559 -0.32064022
v 2.26066160 15.06258559 -0.66199242
v 2.40373373 15.06258559 -0.66199242
v 2.40373373 15.06258559 -0.32064022
v 2.26066160 15.06258559 -0.66199242
v 2.26066160 16.46728289 -0.66199242
v 2.40373373 16.46728289 -0.66199242
v 2.40373373 15.06258559 -0.66199242
v 2.26066160 16.46728289 -0.66199242
v 2.26066160 16.46728289 -0.32064022
v 2.40373373 16.46728289 -0.32064022
v 2.40373373 16.46728289 -0.66199242
v 2.26066160 16.46728289 -0.32064022
v 2.26066160 15.06258559 -0.32064022
v 2.40373373 15.06258559 -0.32064022
v 2.40373373 16.46728289 -0.32064022
v 2.40373373 15.06258559 -0.32064022
v 2.40373373 15.06258559 -0.66199242
v 2.40373373 15.23497402 -0.55441414
v 2.40373373 15.23497402 -0.44475330
v 2.40373373 16.46728289 -0.66199242
v 2.40373373 16.29489745 -0.55441414
v 2.40373373 16.46728289 -0.32064022
v 2.40373373 16.29489745 -0.44475330
v 2.40373373 15.23497402 -0.44475330
v 2.40373373 15.23497402 -0.55441414
v 5.68024874 15.23497402 -0.55441414
v 5.68024874 15.23497402 -0.44475330
v 2.40373373 15.23497402 -0.55441414
v 2.40373373 16.29489745 -0.55441414
v 5.68024874 16.29489745 -0.55441414
v 5.68024874 15.23497402 -0.55441414
v 2.40373373 16.29489745 -0.55441414
v 2.40373373 16.29489745 -0.44475330
v 5.68024874 16.29489745 -0.44475330
v 5.68024874 16.29489745 -0.55441414
v 2.40373373 16.29489745 -0.44475330
v 2.40373373 15.23497402 -0.44475330
v 5.68024874 15.23497402 -0.44475330
v 5.68024874 16.29489745 -0.44475330
vt 0.49113442 0.27735772
vt 0.49113442 0.34469673
vt 0.49682053 0.34469673
vt 0.49682053 0.27735772
vt 0.25198831 0.43152818
vt 0.28696537 0.49886719
vt 0.28696537 0.25153618
vt 0.25198830 0.32933565
vt 0.49682053 0.17516517
vt 0.49682053 0.09736569
vt 0.49113442 0.09736569
vt 0.49113442 0.17516517
vt 0.46456518 0.13752202
vt 0.42953430 0.05981952
vt 0.42970548 0.30715029
vt 0.46463589 0.23971449
vt 0.48971137 0.34469673
vt 0.48971137 0.09737989
vt 0.48402529 0.09737989
vt 0.48402529 0.34469673
vt 0.49113442 0.17516517
vt 0.49113442 0.27735772
vt 0.49682053 0.27735772
vt 0.49682053 0.17516517
vt 0.40208293 0.06053625
vt 0.40092960 0.30785645
vt 0.45975984 0.28967043
vt 0.45407376 0.28967043
vt 0.45483125 0.34457412
vt 0.46051730 0.34457412
vt 0.31574170 0.49949371
vt 0.31441723 0.25217690
vt 0.46838393 0.28714406
vt 0.46269784 0.28714406
vt 0.46194035 0.34469673
vt 0.46762643 0.34469673
vt 0.48260221 0.16396594
vt 0.48260221 0.09737989
vt 0.47691613 0.09737989
vt 0.47691613 0.16396594
vt 0.37594602 0.31883806
vt 0.34061036 0.25225202
vt 0.34193485 0.49956883
vt 0.37649331 0.42102469
vt 0.47691613 0.26615254
vt 0.47691613 0.34469673
vt 0.48260221 0.34469673
vt 0.48260221 0.26615254
vt 0.34073566 0.22971741
vt 0.37534844 0.30816585
vt 0.37650176 0.06084562
vt 0.34121222 0.12752933
vt 0.46980697 0.09737989
vt 0.46980697 0.34469673
vt 0.47549306 0.34469673
vt 0.47549306 0.09737989
vt 0.48260221 0.26615254
vt 0.48260221 0.16396594
vt 0.47691613 0.16396594
vt 0.47691613 0.26615254
vt 0.39953717 0.30861716
vt 0.40069046 0.06129690
vt 0.44696460 0.34457409
vt 0.45265068 0.34457409
vt 0.45265065 0.29619735
vt 0.44696460 0.29619735
vt 0.31642198 0.25277025
vt 0.31774646 0.50008706
vt 0.43985541 0.34457412
vt 0.44554152 0.34457412
vt 0.44554152 0.29619741
vt 0.43985544 0.29619741
vt 0.15767009 0.08165841
vt 0.17254235 0.08165841
vt 0.17254235 0.02898578
vt 0.15767009 0.02898578
vt 0.07025088 0.08165841
vt 0.08512312 0.08165841
vt 0.08512312 0.02774650
vt 0.07025088 0.02774650
vt 0.05382555 0.40408635
vt 0.06131733 0.40408635
vt 0.06131733 0.37472314
vt 0.05382555 0.37472314
vt 0.08646571 0.08165835
vt 0.10133797 0.08165835
vt 0.10133797 0.02774638
vt 0.08646571 0.02774638
vt 0.12901682 0.08165841
vt 0.12901682 0.02774650
vt 0.10268057 0.02774650
vt 0.10268057 0.08165841
vt 0.13017533 0.02774650
vt 0.13017533 0.08165841
vt 0.15651163 0.08165841
vt 0.15651163 0.02774650
vt 0.17388495 0.08165841
vt 0.18875722 0.08165841
vt 0.18506696 0.07000375
vt 0.17757519 0.07000375
vt 0.18875722 0.02898590
vt 0.18506696 0.04064056
vt 0.17388495 0.02898590
vt 0.17757519 0.04064056
vt 0.00497925 0.40408635
vt 0.01247104 0.40408635
vt 0.01247104 0.01961025
vt 0.00497925 0.01961025
vt 0.17367347 0.45707190
vt 0.17717447 0.45707190
vt 0.17717447 0.42306484
vt 0.17367347 0.42306484
vt 0.18059367 0.42341953
vt 0.17781909 0.42341953
vt 0.17781909 0.45707190
vt 0.18059367 0.45707190
vt 0.01360729 0.40408635
vt 0.02828892 0.40408635
vt 0.02828892 0.01961025
vt 0.01360729 0.01961025
vt 0.03691137 0.01961019
vt 0.02941961 0.01961019
vt 0.03085709 0.35424140
vt 0.03547386 0.35424140
vt 0.02941961 0.40408635
vt 0.03085709 0.39064291
vt 0.03691137 0.40408635
vt 0.03547386 0.39064291
vt 0.23231347 0.08994740
vt 0.23231347 0.01976192
vt 0.21304594 0.01976192
vt 0.21304594 0.08994740
vt 0.07520845 0.36740860
vt 0.07520845 0.09071656
vt 0.05594090 0.09071656
vt 0.05594090 0.36740860
vt 0.19259421 0.01976203
vt 0.19259421 0.08994740
vt 0.21186177 0.08994740
vt 0.21186177 0.01976203
vt 0.07666741 0.09071656
vt 0.07666741 0.36740860
vt 0.09593498 0.36740860
vt 0.09593498 0.09071656
vt 0.13244901 0.09071650
vt 0.09735627 0.09071650
vt 0.10666766 0.12604933
vt 0.12313760 0.12604933
vt 0.09735627 0.36740846
vt 0.10666766 0.33207545
vt 0.13244901 0.36740846
vt 0.12313760 0.33207545
vt 0.17081326 0.39400475
vt 0.17081038 0.38862435
vt 0.06694152 0.38883282
vt 0.06694438 0.39421325
vt 0.17080098 0.42926979
vt 0.17084446 0.39561745
vt 0.06697593 0.39506745
vt 0.06693244 0.42871979
vt 0.06696378 0.43052560
vt 0.06696665 0.43590603
vt 0.17083551 0.43569756
vt 0.17083263 0.43031712
vt 0.06692421 0.43764726
vt 0.06703031 0.47129904
vt 0.17089722 0.47000253
vt 0.17079115 0.43635073
vt 0.03801328 0.40408635
vt 0.05269488 0.40408635
vt 0.05009026 0.06943418
vt 0.04157978 0.06943418
vt 0.05269488 0.01961025
vt 0.05009026 0.03313426
vt 0.03801328 0.01961025
vt 0.04157978 0.03313426
vt 0.23239827 0.23803078
vt 0.23239827 0.36740855
vt 0.24707962 0.36740855
vt 0.24707962 0.23803078
vt 0.13384396 0.09148798
vt 0.13384396 0.36740846
vt 0.14852529 0.36740846
vt 0.14852529 0.09148798
vt 0.23349764 0.10711213
vt 0.23349764 0.23649002
vt 0.24817903 0.23649002
vt 0.24817903 0.10711213
vt 0.15001890 0.09148798
vt 0.15001890 0.36740860
vt 0.16470024 0.36740860
vt 0.16470024 0.09148798
vt 0.16619385 0.36740860
vt 0.23088275 0.36740860
vt 0.21049584 0.33354696
vt 0.18971425 0.33354696
vt 0.23088275 0.09148798
vt 0.21049584 0.12534912
vt 0.16619385 0.09148798
vt 0.18971425 0.12534912
vt 0.18234617 0.46537729
vt 0.18233336 0.47216618
vt 0.23897411 0.47256740
vt 0.23898690 0.46577851
vt 0.23892743 0.46492989
vt 0.23911226 0.43092485
vt 0.18247437 0.42971913
vt 0.18228957 0.46372422
vt 0.18242810 0.42189431
vt 0.18241530 0.42868317
vt 0.23905602 0.42908436
vt 0.23906879 0.42229556
vt 0.18249451 0.38663752
vt 0.18243043 0.42064425
vt 0.23907117 0.42104547
vt 0.23913525 0.38703871
f 1/1 2/2 3/3
f 1/1 3/3 4/4
f 5/5 6/6 7/7
f 5/5 7/7 8/8
f 9/9 10/10 11/11
f 9/9 11/11 12/12
f 13/13 14/14 15/15
f 13/13 15/15 16/16
f 17/17 18/18 19/19
f 17/17 19/19 20/20
f 21/21 22/22 23/23
f 21/21 23/23 24/24
f 15/15 14/14 25/25
f 15/15 25/25 26/26
f 27/27 28/28 29/29
f 27/27 29/29 30/30
f 7/7 6/6 31/31
f 7/7 31/31 32/32
f 33/33 34/34 35/35
f 33/33 35/35 36/36
f 37/37 38/38 39/39
f 37/37 39/39 40/40
f 41/41 42/42 43/43
f 41/41 43/43 44/44
f 45/45 46/46 47/47
f 45/45 47/47 48/48
f 49/49 50/50 51/51
f 49/49 51/51 52/52
f 53/53 54/54 55/55
f 53/53 55/55 56/56
f 57/57 58/58 59/59
f 57/57 59/59 60/60
f 51/51 50/50 61/61
f 51/51 61/61 62/62
f 63/63 64/64 65/65
f 63/63 65/65 66/66
f 43/43 42/42 67/67
f 43/43 67/67 68/68
f 69/69 70/70 71/71
f 69/69 71/71 72/72
f 73/73 74/74 75/75
f 73/73 75/75 76/76
f 77/77 78/78 79/79
f 77/77 79/79 80/80
f 81/81 82/82 83/83
f 81/81 83/83 84/84
f 85/85 86/86 87/87
f 85/85 87/87 88/88
f 89/89 90/90 91/91
f 89/89 91/91 92/92
f 93/93 94/94 95/95
f 93/93 95/95 96/96
f 97/97 98/98 99/99
f 97/97 99/99 100/100
f 98/98 101/101 102/102
f 98/98 102/102 99/99
f 101/101 103/103 104/104
f 101/101 104/104 102/102
f 103/103 97/97 100/100
f 103/103 100/100 104/104
f 105/105 106/106 107/107
f 105/105 107/107 108/108
f 109/109 110/110 111/111
f 109/109 111/111 112/112
f 113/113 114/114 115/115
f 113/113 115/115 116/116
f 117/117 118/118 119/119
f 117/117 119/119 120/120
f 121/121 122/122 123/123
f 121/121 123/123 124/124
f 122/122 125/125 126/126
f 122/122 126/126 123/123
f 125/125 127/127 128/128
f 125/125 128/128 126/126
f 127/127 121/121 124/124
f 127/127 124/124 128/128
f 129/129 130/130 131/131
f 129/129 131/131 132/132
f 133/133 134/134 135/135
f 133/133 135/135 136/136
f 137/137 138/138 139/139
f 137/137 139/139 140/140
f 141/141 142/142 143/143
f 141/141 143/143 144/144
f 145/145 146/146 147/147
f 145/145 147/147 148/148
f 146/146 149/149 150/150
f 146/146 150/150 147/147
f 149/149 151/151 152/152
f 149/149 152/152 150/150
f 151/151 145/145 148/148
f 151/151 148/148 152/152
f 153/153 154/154 155/155
f 153/153 155/155 156/156
f 157/157 158/158 159/159
f 157/157 159/159 160/160
f 161/161 162/162 163/163
f 161/161 163/163 164/164
f 165/165 166/166 167/167
f 165/165 167/167 168/168
f 169/169 170/170 171/171
f 169/169 171/171 172/172
f 170/170 173/173 174/174
f 170/170 174/174 171/171
f 173/173 175/175 176/176
f 173/173 176/176 174/174
f 175/175 169/169 172/172
f 175/175 172/172 176/176
f 177/177 178/178 179/179
f 177/177 179/179 180/180
f 181/181 182/182 183/183
f 181/181 183/183 184/184
f 185/185 186/186 187/187
f 185/185 187/187 188/188
f 189/189 190/190 191/191
f 189/189 191/191 192/192
f 193/193 194/194 195/195
f 193/193 195/195 196/196
f 194/194 197/197 198/198
f 194/194 198/198 195/195
f 197/197 199/199 200/200
f 197/197 200/200 198/198
f 199/199 193/193 196/196
f 199/199 196/196 200/200
f 201/201 202/202 203/203
f 201/201 203/203 204/204
f 205/205 206/206 207/207
f 205/205 207/207 208/208
f 209/209 210/210 211/211
f 209/209 211/211 212/212
f 213/213 214/214 215/215
f 213/213 215/215 216/216

